<svg width="576" height="385" viewBox="0 0 576 385" fill="none" xmlns="http://www.w3.org/2000/svg">
<path opacity="0.06" d="M0.140625 247.969L0.335938 242.305C1.76823 203.373 11.599 166.589 29.8281 131.954C46.625 100.313 67.7839 74.7272 93.3047 55.1959C118.565 35.9251 143.174 26.2897 167.133 26.2897C185.362 26.2897 199.75 32.6048 210.297 45.235C219.281 56.1725 223.773 69.5839 223.773 85.4694C223.773 104.48 216.807 123.23 202.875 141.719C194.802 152.396 186.208 160.079 177.094 164.766C172.797 167.11 168.76 168.282 164.984 168.282C161.339 168.282 157.953 167.501 154.828 165.938C151.703 164.376 148.969 162.422 146.625 160.079C141.807 155.001 139.398 150.443 139.398 146.407C139.398 142.37 140.44 139.571 142.523 138.008C163.878 122.644 178.396 106.824 186.078 90.5475C189.073 84.2975 190.57 78.1777 190.57 72.1881C190.57 59.5579 184.581 53.2428 172.602 53.2428C153.852 53.2428 134.516 63.4642 114.594 83.9069C95.974 102.787 80.349 126.485 67.7188 155.001C54.5677 184.297 47.6016 211.186 46.8203 235.665L46.625 243.087C46.625 272.383 52.8099 291.589 65.1797 300.704C69.6068 303.959 74.8802 305.587 81 305.587C87.25 305.587 93.1094 304.805 98.5781 303.243C104.047 301.68 109.516 299.532 114.984 296.797C123.839 292.24 135.167 284.363 148.969 273.165C153.135 269.909 156.586 270.365 159.32 274.532C161.664 277.917 162.836 281.824 162.836 286.251C162.836 293.672 161.794 298.751 159.711 301.485C157.758 304.089 154.307 307.214 149.359 310.86C144.542 314.506 138.617 317.891 131.586 321.016C115.18 328.308 99.099 331.954 83.3438 331.954C67.5885 331.954 54.8932 330.066 45.2578 326.29C35.6224 322.383 27.4844 316.85 20.8438 309.688C7.04167 294.584 0.140625 274.011 0.140625 247.969ZM226.898 316.719C221.43 311.511 217.133 304.936 214.008 296.993C210.883 288.92 209.255 279.415 209.125 268.477C208.995 257.54 210.297 246.472 213.031 235.274C215.896 224.076 219.867 213.269 224.945 202.852C230.154 192.436 236.339 182.67 243.5 173.555C250.792 164.441 258.799 156.498 267.523 149.727C286.534 135.144 306.26 127.852 326.703 127.852C353.526 127.852 371.69 139.636 381.195 163.204C387.966 180.261 388.357 200.899 382.367 225.118C376.898 247.383 366.872 267.826 352.289 286.446C337.836 305.066 320.779 318.282 301.117 326.094C291.221 330.001 281.456 331.954 271.82 331.954C262.315 331.954 253.786 330.717 246.234 328.243C238.812 325.769 232.367 321.928 226.898 316.719ZM264.203 221.993C260.297 231.628 257.172 241.524 254.828 251.68C252.615 261.837 251.573 271.472 251.703 280.587C251.833 289.571 253.201 296.667 255.805 301.876C258.539 306.954 262.901 309.493 268.891 309.493C274.88 309.493 280.74 307.475 286.469 303.438C292.328 299.271 297.992 293.803 303.461 287.032C308.93 280.261 314.073 272.449 318.891 263.594C323.708 254.74 327.94 245.495 331.586 235.86C339.529 214.896 343.37 196.277 343.109 180.001C343.109 165.678 340.18 156.563 334.32 152.657C331.977 151.094 328.656 150.313 324.359 150.313C320.193 150.313 315.375 152.266 309.906 156.172C304.438 159.949 298.969 165.092 293.5 171.602C288.031 178.113 282.758 185.73 277.68 194.454C272.602 203.178 268.109 212.357 264.203 221.993ZM392.523 372.969C392.523 370.235 394.607 364.766 398.773 356.563C402.81 348.49 407.237 338.139 412.055 325.508C417.003 312.878 421.69 299.727 426.117 286.055C430.544 272.383 435.036 257.735 439.594 242.11L454.828 190.547L434.516 196.016C429.438 196.016 425.271 193.347 422.016 188.008C421.234 186.576 420.844 184.883 420.844 182.93C420.844 180.977 422.406 178.699 425.531 176.094C428.656 173.36 432.497 170.821 437.055 168.477C446.169 163.79 455.544 160.209 465.18 157.735L466.938 152.266C470.453 141.329 473.773 130.001 476.898 118.282C480.154 106.433 483.539 94.9095 487.055 83.7115C490.701 72.5136 494.802 61.9017 499.359 51.8756C503.917 41.7194 509.255 32.8652 515.375 25.3131C528.917 8.90686 545.909 0.703735 566.352 0.703735C581.456 0.703735 593.435 4.74019 602.289 12.8131C611.143 20.886 615.57 31.8235 615.57 45.6256C615.57 59.9485 611.469 72.3834 603.266 82.9303C596.365 91.6543 588.682 96.0162 580.219 96.0162C569.672 96.0162 562.51 91.1985 558.734 81.5631C557.693 79.0892 557.172 77.0058 557.172 75.3131C557.172 72.4485 559.125 69.8444 563.031 67.5006C570.193 62.0319 575.206 54.7402 578.07 45.6256C578.982 42.761 579.438 39.9615 579.438 37.2272C579.438 26.5501 575.271 21.2115 566.938 21.2115C555.479 21.2115 544.932 34.1673 535.297 60.0787C532.432 68.0214 529.568 76.7454 526.703 86.2506L508.344 148.555C520.193 146.732 528.786 145.821 534.125 145.821C539.594 145.821 544.411 146.472 548.578 147.774C552.745 148.946 556.521 150.639 559.906 152.852C567.589 157.93 571.43 164.18 571.43 171.602C571.43 179.024 567.784 182.735 560.492 182.735L535.688 181.758C522.146 181.758 509.646 182.344 498.188 183.516L482.172 240.157C471.625 278.568 463.031 306.498 456.391 323.946C449.88 341.394 443.5 356.172 437.25 368.282C431.391 379.35 422.471 384.883 410.492 384.883C398.513 384.883 392.523 380.912 392.523 372.969ZM549.945 372.969C549.945 370.235 552.029 364.766 556.195 356.563C560.232 348.49 564.659 338.139 569.477 325.508C574.424 312.878 579.112 299.727 583.539 286.055C587.966 272.383 592.458 257.735 597.016 242.11L612.25 190.547L591.938 196.016C586.859 196.016 582.693 193.347 579.438 188.008C578.656 186.576 578.266 184.883 578.266 182.93C578.266 180.977 579.828 178.699 582.953 176.094C586.078 173.36 589.919 170.821 594.477 168.477C603.591 163.79 612.966 160.209 622.602 157.735L624.359 152.266C627.875 141.329 631.195 130.001 634.32 118.282C637.576 106.433 640.961 94.9095 644.477 83.7115C648.122 72.5136 652.224 61.9017 656.781 51.8756C661.339 41.7194 666.677 32.8652 672.797 25.3131C686.339 8.90686 703.331 0.703735 723.773 0.703735C738.878 0.703735 750.857 4.74019 759.711 12.8131C768.565 20.886 772.992 31.8235 772.992 45.6256C772.992 59.9485 768.891 72.3834 760.688 82.9303C753.786 91.6543 746.104 96.0162 737.641 96.0162C727.094 96.0162 719.932 91.1985 716.156 81.5631C715.115 79.0892 714.594 77.0058 714.594 75.3131C714.594 72.4485 716.547 69.8444 720.453 67.5006C727.615 62.0319 732.628 54.7402 735.492 45.6256C736.404 42.761 736.859 39.9615 736.859 37.2272C736.859 26.5501 732.693 21.2115 724.359 21.2115C712.901 21.2115 702.354 34.1673 692.719 60.0787C689.854 68.0214 686.99 76.7454 684.125 86.2506L665.766 148.555C677.615 146.732 686.208 145.821 691.547 145.821C697.016 145.821 701.833 146.472 706 147.774C710.167 148.946 713.943 150.639 717.328 152.852C725.01 157.93 728.852 164.18 728.852 171.602C728.852 179.024 725.206 182.735 717.914 182.735L693.109 181.758C679.568 181.758 667.068 182.344 655.609 183.516L639.594 240.157C629.047 278.568 620.453 306.498 613.812 323.946C607.302 341.394 600.922 356.172 594.672 368.282C588.812 379.35 579.893 384.883 567.914 384.883C555.935 384.883 549.945 380.912 549.945 372.969ZM731.391 261.641C731.911 250.313 733.799 239.506 737.055 229.219C740.31 218.803 744.672 208.777 750.141 199.141C755.609 189.376 761.99 180.196 769.281 171.602C776.703 162.878 784.711 155.261 793.305 148.751C811.924 134.818 830.74 127.852 849.75 127.852C872.016 127.852 886.859 137.032 894.281 155.391C896.885 161.641 898.122 169.063 897.992 177.657C897.862 186.12 896.234 193.998 893.109 201.29C889.984 208.451 885.622 215.027 880.023 221.016C874.555 226.876 867.979 232.149 860.297 236.837C852.745 241.524 844.477 245.495 835.492 248.751C817.003 255.261 797.211 258.646 776.117 258.907C775.596 260.73 775.271 263.464 775.141 267.11C775.01 270.756 775.401 274.857 776.312 279.415C777.224 283.842 778.786 287.813 781 291.329C785.688 299.141 792.458 303.047 801.312 303.047C816.417 303.047 831.13 298.62 845.453 289.766C850.531 286.771 854.633 283.712 857.758 280.587C861.013 277.331 863.812 275.704 866.156 275.704C868.5 275.704 870.518 277.136 872.211 280.001C874.034 282.735 874.945 285.86 874.945 289.376C874.945 296.277 872.992 302.266 869.086 307.344C852.68 323.751 828.266 331.954 795.844 331.954C776.703 331.954 761.339 326.225 749.75 314.766C736.729 301.745 730.609 284.037 731.391 261.641ZM845.453 153.829C831.781 153.829 818.63 163.204 806 181.954C795.323 198.1 786.729 217.24 780.219 239.376C801.964 237.162 820.844 228.568 836.859 213.594C851.573 199.532 858.93 186.055 858.93 173.165C858.93 160.274 854.438 153.829 845.453 153.829ZM920.062 261.641C920.583 250.313 922.471 239.506 925.727 229.219C928.982 218.803 933.344 208.777 938.812 199.141C944.281 189.376 950.661 180.196 957.953 171.602C965.375 162.878 973.383 155.261 981.977 148.751C1000.6 134.818 1019.41 127.852 1038.42 127.852C1060.69 127.852 1075.53 137.032 1082.95 155.391C1085.56 161.641 1086.79 169.063 1086.66 177.657C1086.53 186.12 1084.91 193.998 1081.78 201.29C1078.66 208.451 1074.29 215.027 1068.7 221.016C1063.23 226.876 1056.65 232.149 1048.97 236.837C1041.42 241.524 1033.15 245.495 1024.16 248.751C1005.67 255.261 985.883 258.646 964.789 258.907C964.268 260.73 963.943 263.464 963.812 267.11C963.682 270.756 964.073 274.857 964.984 279.415C965.896 283.842 967.458 287.813 969.672 291.329C974.359 299.141 981.13 303.047 989.984 303.047C1005.09 303.047 1019.8 298.62 1034.12 289.766C1039.2 286.771 1043.3 283.712 1046.43 280.587C1049.68 277.331 1052.48 275.704 1054.83 275.704C1057.17 275.704 1059.19 277.136 1060.88 280.001C1062.71 282.735 1063.62 285.86 1063.62 289.376C1063.62 296.277 1061.66 302.266 1057.76 307.344C1041.35 323.751 1016.94 331.954 984.516 331.954C965.375 331.954 950.01 326.225 938.422 314.766C925.401 301.745 919.281 284.037 920.062 261.641ZM1034.12 153.829C1020.45 153.829 1007.3 163.204 994.672 181.954C983.995 198.1 975.401 217.24 968.891 239.376C990.635 237.162 1009.52 228.568 1025.53 213.594C1040.24 199.532 1047.6 186.055 1047.6 173.165C1047.6 160.274 1043.11 153.829 1034.12 153.829Z" fill="white"/>
</svg>
